<?xml version="1.0" encoding="UTF-8" standalone="no"?>
<svg
   version="1.0"
   width="724.51471pt"
   height="552.79999pt"
   viewBox="0 0 724.51471 552.79999"
   preserveAspectRatio="xMidYMid meet"
   id="svg14"
   sodipodi:docname="881ee38003bd85b375fe3d6ac2008556.svg"
   xmlns:inkscape="http://www.inkscape.org/namespaces/inkscape"
   xmlns:sodipodi="http://sodipodi.sourceforge.net/DTD/sodipodi-0.dtd"
   xmlns="http://www.w3.org/2000/svg"
   xmlns:svg="http://www.w3.org/2000/svg">
  <defs
     id="defs18" />
  <sodipodi:namedview
     id="namedview16"
     pagecolor="#ffffff"
     bordercolor="#666666"
     borderopacity="1.0"
     inkscape:pageshadow="2"
     inkscape:pageopacity="0.0"
     inkscape:pagecheckerboard="0"
     inkscape:document-units="pt" />
  <metadata
     id="metadata2">
Created by potrace 1.16, written by Peter Selinger 2001-2019
</metadata>
  <g
     transform="matrix(0.1,0,0,-0.1,-0.5,553.3)"
     fill="#000000"
     stroke="none"
     id="g12">
    <path
       d="m 2073,5503 c -53,-49 -65,-93 -61,-215 2,-60 1,-108 -3,-108 -3,0 -25,15 -49,33 -24,17 -50,37 -59,42 -8,6 -20,15 -26,21 -5,7 -30,25 -54,40 -176,115 -209,126 -413,132 -155,4 -156,4 -171,-19 -9,-13 -21,-67 -28,-119 -7,-52 -16,-99 -20,-104 -9,-10 -113,28 -147,54 -13,11 -29,20 -34,20 -5,0 -21,9 -36,20 -25,19 -40,20 -181,18 l -153,-3 -32,-60 c -49,-91 -67,-159 -73,-276 -5,-91 -3,-114 16,-167 11,-34 21,-67 21,-73 0,-16 49,-112 63,-124 7,-5 26,-28 42,-50 16,-22 45,-54 64,-71 l 34,-30 -23,-22 c -12,-11 -58,-39 -102,-61 -135,-69 -183,-113 -215,-198 -19,-49 -23,-78 -23,-183 0,-117 1,-126 26,-161 25,-36 25,-39 8,-61 -9,-13 -38,-40 -63,-60 C 280,3637 127,3489 97,3444 79,3418 57,3385 48,3371 9,3314 6,3296 6,3123 l -1,-172 31,-33 c 68,-72 64,-31 57,-567 -5,-440 -3,-510 16,-741 12,-140 28,-280 36,-310 8,-30 15,-69 15,-85 0,-17 7,-55 15,-85 9,-30 20,-75 25,-100 6,-25 16,-61 24,-80 7,-19 21,-62 30,-95 24,-85 102,-240 140,-278 144,-146 205,-179 341,-185 124,-6 129,-1 177,158 6,19 13,98 17,175 6,131 7,138 21,110 7,-16 19,-37 26,-45 7,-8 46,-80 86,-160 41,-80 90,-172 107,-205 37,-68 146,-187 206,-225 22,-14 49,-31 60,-38 72,-45 148,-62 285,-62 94,0 97,1 108,25 14,30 15,169 3,233 l -9,43 25,-23 c 14,-13 50,-47 82,-77 81,-77 148,-120 241,-153 118,-42 149,-49 260,-63 63,-8 142,-19 175,-25 288,-48 372,-54 770,-55 h 390 l 80,33 c 44,18 84,37 89,43 6,5 16,9 23,9 36,0 193,145 215,198 6,15 21,47 34,72 62,122 97,428 61,531 -20,57 -65,116 -100,130 -18,7 -39,18 -47,24 -8,7 -26,16 -40,20 -34,10 -158,62 -192,81 -15,8 -54,20 -85,25 -32,6 -78,15 -103,20 -25,6 -144,14 -265,18 -143,5 -241,13 -280,24 -33,8 -82,20 -110,27 -72,16 -250,106 -270,136 -26,40 -16,66 35,92 43,22 53,23 205,19 88,-2 183,-10 210,-17 108,-27 191,-54 205,-66 8,-7 40,-22 70,-34 30,-12 73,-30 95,-40 82,-37 163,-70 173,-70 6,0 37,-11 69,-24 75,-31 265,-71 458,-96 77,-10 228,-36 385,-66 41,-8 217,-28 390,-44 173,-17 351,-36 395,-42 58,-10 259,-13 735,-13 h 655 l 159,48 c 175,53 210,68 226,96 6,13 10,270 10,755 0,844 8,777 -94,816 -34,13 -66,27 -72,32 -25,18 -168,28 -436,28 -287,0 -288,0 -391,29 -57,16 -126,40 -153,53 -41,19 -49,28 -52,53 -5,47 46,112 166,212 129,109 236,214 277,273 26,38 30,53 34,127 4,101 -13,152 -67,200 -44,39 -262,171 -312,189 -42,16 -256,17 -320,3 -91,-21 -96,-21 -108,-6 -7,8 -15,39 -18,68 -10,100 -58,223 -120,312 -19,26 -34,51 -34,56 0,16 -98,92 -152,118 -29,14 -89,39 -133,55 -78,29 -86,30 -313,35 l -233,6 -40,33 c -42,35 -109,111 -109,124 0,4 -16,28 -35,53 -45,59 -152,128 -234,150 -92,26 -281,33 -378,16 l -78,-14 55,-6 55,-6 -67,-1 c -65,-2 -95,3 -223,34 -33,8 -91,22 -130,30 -72,15 -118,40 -170,91 -45,44 -160,119 -281,183 -17,9 -44,26 -59,38 -15,12 -32,22 -37,22 -5,0 -26,11 -46,25 -20,14 -43,25 -52,25 -8,0 -28,7 -45,16 -16,9 -48,22 -70,29 -22,7 -114,39 -205,70 l -165,57 -150,5 -150,6 z M 4390,3545 c 50,-26 65,-79 34,-123 -15,-22 -15,-25 7,-48 34,-36 32,-95 -4,-131 -26,-26 -33,-28 -115,-28 h -87 l -3,160 c -1,87 0,165 2,172 8,19 129,17 166,-2 z m 330,-7 c 5,-13 36,-88 68,-168 43,-104 57,-149 50,-157 -15,-18 -25,-9 -54,48 l -25,50 -67,-3 -67,-3 -23,-47 c -15,-34 -28,-48 -42,-48 -25,0 -25,13 1,70 11,25 39,90 61,144 21,55 44,108 49,118 13,25 38,23 49,-4 z m 387,5 c 21,-9 41,-30 51,-50 16,-33 15,-37 -4,-72 -20,-38 -20,-38 -1,-62 15,-19 18,-33 13,-66 -3,-26 -2,-43 4,-43 6,0 10,-9 10,-21 0,-16 -5,-20 -27,-17 -27,3 -28,6 -31,66 -3,57 -5,64 -28,72 -14,6 -45,10 -70,10 h -44 v -76 c 0,-66 -2,-75 -17,-72 -16,3 -18,20 -21,163 -1,87 0,165 2,172 8,19 120,17 163,-4 z m 451,-3 c 22,-14 32,-27 32,-45 0,-31 -1,-31 -46,0 -56,38 -123,35 -170,-8 -81,-74 -51,-203 54,-238 40,-13 101,2 128,33 24,26 36,22 32,-9 -2,-20 -14,-34 -43,-50 -144,-81 -316,77 -251,230 7,18 33,50 56,70 41,35 48,37 109,37 48,0 75,-5 99,-20 z m 380,6 c 63,-33 109,-120 97,-186 -23,-126 -145,-193 -256,-141 -177,83 -121,341 74,341 32,0 70,-6 85,-14 z m -3676,-1134 56,-2 62,-186 c 34,-102 64,-184 65,-182 2,2 27,73 55,158 28,85 56,167 62,183 l 11,28 141,-3 c 117,-3 141,-6 141,-18 0,-10 -12,-16 -37,-18 l -38,-3 v -305 -304 h 34 c 20,0 36,-6 39,-14 12,-31 -19,-37 -184,-34 -156,3 -164,4 -164,23 0,16 8,21 38,23 l 37,3 v 257 c 0,141 -4,250 -9,242 -4,-8 -48,-133 -97,-277 -84,-252 -89,-263 -114,-263 -24,0 -29,11 -115,269 l -90,268 -5,-226 c -3,-124 -3,-236 -1,-248 3,-19 10,-23 37,-23 38,0 51,-14 34,-35 -15,-18 -170,-21 -187,-4 -20,20 -3,39 33,39 h 34 v 305 305 h -34 c -39,0 -57,18 -34,34 14,10 75,12 230,8 z m 1085,-9 c 51,-16 54,-16 67,2 8,11 19,16 30,12 13,-5 16,-23 18,-102 0,-52 1,-101 2,-107 2,-21 -33,-21 -40,-1 -27,84 -57,124 -115,153 -52,27 -91,25 -128,-5 -48,-41 -56,-80 -56,-280 0,-200 10,-251 55,-297 22,-22 38,-28 70,-28 83,0 151,53 180,142 13,39 22,53 36,53 23,0 29,-45 19,-152 -6,-62 -9,-73 -25,-73 -11,0 -23,7 -27,15 -8,13 -15,12 -61,-5 -64,-24 -167,-26 -240,-5 -72,22 -151,96 -187,177 -37,82 -46,200 -20,279 22,69 69,143 110,175 79,60 209,80 312,47 z m 1575,-1 c 3,-4 8,-52 10,-107 3,-94 2,-100 -17,-100 -14,0 -21,9 -26,32 -19,94 -75,135 -196,141 l -83,5 v -132 -131 h 44 c 62,0 79,20 88,100 2,17 10,26 26,28 22,3 22,3 22,-146 0,-125 -3,-151 -15,-156 -16,-6 -35,28 -35,60 0,8 -7,28 -15,44 -14,27 -20,30 -65,30 h -50 v -155 -155 h 82 c 124,0 202,47 232,141 6,19 18,34 26,34 12,0 16,-19 18,-99 2,-64 -1,-103 -9,-112 -9,-11 -66,-14 -308,-14 -163,0 -302,4 -310,9 -25,16 -4,41 34,41 h 35 v 304 305 l -37,3 c -44,4 -60,34 -21,40 42,6 563,-3 570,-10 z m 702,7 c 2,-2 5,-58 7,-124 4,-116 3,-120 -17,-123 -18,-3 -23,4 -29,35 -18,98 -67,161 -134,170 l -41,6 v -307 -306 h 35 c 38,0 59,-25 34,-41 -8,-5 -84,-9 -169,-9 -85,0 -161,4 -169,9 -25,16 -4,41 34,41 h 35 v 305 305 h -27 c -65,0 -118,-61 -144,-164 -10,-39 -15,-47 -33,-44 -20,3 -21,7 -18,118 2,63 7,118 11,122 10,12 615,18 625,7 z m 870,5 c 9,-3 39,-79 77,-192 l 62,-187 62,185 62,185 133,3 c 74,1 140,0 147,-2 25,-10 1,-36 -33,-36 h -34 v -305 -305 h 34 c 20,0 36,-6 39,-14 12,-31 -19,-37 -184,-34 -161,3 -164,3 -167,26 -3,19 1,22 32,22 h 36 l -1,248 c 0,136 -3,243 -5,237 -3,-5 -44,-125 -92,-265 -82,-239 -89,-255 -112,-258 -25,-3 -28,3 -114,260 -49,145 -92,269 -96,277 -4,8 -8,-101 -9,-242 l -2,-257 h 39 c 42,0 60,-18 39,-39 -13,-13 -166,-15 -186,-2 -25,16 -4,41 34,41 h 35 v 304 305 l -37,3 c -26,2 -38,8 -38,18 0,12 21,16 110,21 61,3 120,6 132,7 12,1 28,-1 37,-4 z m -2394,-27 c 138,-56 148,-208 17,-277 -26,-14 -47,-27 -47,-30 1,-3 15,-14 33,-25 43,-27 66,-79 76,-165 8,-79 29,-112 59,-94 9,6 18,20 20,32 4,25 27,46 42,37 19,-12 10,-63 -16,-95 -37,-44 -80,-63 -140,-62 -109,1 -151,48 -170,194 -7,55 -20,110 -29,124 -14,21 -23,24 -80,24 h -65 v -144 -145 l 38,-3 c 25,-2 37,-8 37,-18 0,-13 -28,-15 -178,-18 -166,-2 -178,-1 -175,15 2,13 14,19 41,21 l 37,3 v 305 304 h -40 c -33,0 -40,3 -40,20 0,19 7,20 263,20 247,-1 265,-2 317,-23 z m 2058,6 c -2,-13 -14,-19 -40,-21 l -37,-3 -3,-269 -3,-268 -31,-39 c -42,-51 -82,-73 -148,-80 -77,-8 -138,4 -187,36 -50,34 -68,63 -69,113 0,50 8,66 41,83 72,38 159,-4 159,-77 0,-37 -33,-98 -52,-98 -8,0 -6,-5 4,-11 23,-13 66,-1 78,21 6,11 10,138 10,304 v 285 l -37,3 c -27,2 -39,8 -41,21 -3,16 11,17 178,17 167,0 181,-1 178,-17 z"
       id="path4" />
    <path
       d="m 4260,3315 v -65 h 39 c 57,0 100,18 107,45 14,55 -22,85 -101,85 h -45 z"
       id="path6" />
    <path
       d="m 5776,3499 c -128,-101 -9,-316 134,-242 93,48 106,177 25,241 -38,30 -121,31 -159,1 z"
       id="path8" />
    <path
       d="m 3800,2229 v -142 l 62,6 c 37,3 71,13 87,25 68,50 61,201 -10,238 -16,8 -53,14 -84,14 h -55 z"
       id="path10" />
  </g>
</svg>
